<?xml version="1.0" encoding="UTF-8"?>
<svg version="1.1" xmlns="http://www.w3.org/2000/svg" width="1200" height="1200" id="logo">
<path d="M0 0 C4.03482619 12.10447857 -6.76011394 33.02085619 -12 44 C-23.94043351 67.43902307 -42.72480648 85.20646623 -67.734375 93.71875 C-81.86429035 98.16681006 -96.22895711 100.18266493 -111 100.0625 C-112.06089844 100.05798828 -113.12179688 100.05347656 -114.21484375 100.04882812 C-116.80995598 100.03713843 -119.40494709 100.02075276 -122 100 C-121.51027233 93.59369807 -120.6371952 87.55491582 -118.875 81.375 C-118.65835693 80.60792725 -118.44171387 79.84085449 -118.21850586 79.05053711 C-115.86049825 71.03924126 -112.6502505 63.49945327 -109 56 C-108.51660156 55.00355469 -108.03320312 54.00710938 -107.53515625 52.98046875 C-95.72932515 30.12097862 -76.15486438 13.70954544 -51.78271484 5.81567383 C-34.62865366 0.67265362 -17.83536031 -0.49422982 0 0 Z " fill="#9A25AF" transform="translate(366,542)"/>
<path d="M0 0 C4.01512291 3.37622014 7.90298411 6.86868861 11.6875 10.5 C12.62078125 11.39332031 13.5540625 12.28664063 14.515625 13.20703125 C16.4375 15.6875 16.4375 15.6875 16.25390625 17.70825195 C14.83183505 21.15583904 11.3435447 22.39477422 8.1875 24.0625 C7.46312744 24.4553418 6.73875488 24.84818359 5.99243164 25.25292969 C-22.07404011 40.30802557 -51.65504639 47.6882331 -82.86328125 38.46875 C-105.10463359 31.37877855 -125.83016735 16.85432038 -141.5625 -0.3125 C-141.5625 -1.3025 -141.5625 -2.2925 -141.5625 -3.3125 C-98.31359779 -37.23468243 -41.78843821 -33.20582697 0 0 Z " fill="#9A25B0" transform="translate(344.5625,494.3125)"/>
<path d="M0 0 C4.80274949 1.3453485 8.51816036 3.44803157 12.5 6.375 C13.10094482 6.81199219 13.70188965 7.24898438 14.32104492 7.69921875 C39.87558701 26.56699453 59.14988562 49.96569598 65.25 81.8125 C68.56431849 106.50566566 64.27007783 129.50364463 57 153 C38.08217977 148.74186521 17.46768516 125.82591701 7.3125 110.25 C-9.301767 83.82678584 -13.24027151 52.86454214 -6.57861328 22.37695312 C-4.73803734 14.81583608 -2.40827582 7.39629048 0 0 Z " fill="#9A25AF" transform="translate(303,343)"/>
<path d="M0 0 C0.63447422 2.22681972 1.25744424 4.45597759 1.875 6.6875 C2.22304688 7.92886719 2.57109375 9.17023438 2.9296875 10.44921875 C5.48497232 20.65979414 6.36556406 30.81112216 6.3125 41.3125 C6.30686035 42.49239502 6.3012207 43.67229004 6.29541016 44.88793945 C5.93902896 70.59502065 -2.90307475 91.7437745 -20 111 C-20.66257812 111.74636719 -21.32515625 112.49273437 -22.0078125 113.26171875 C-33.20244888 125.11611507 -50.74262476 139.46647254 -67 143 C-67.63566188 141.0868429 -68.25779535 139.16919111 -68.875 137.25 C-69.22304688 136.18265625 -69.57109375 135.1153125 -69.9296875 134.015625 C-72.71952349 124.20826864 -73.34821794 114.39697453 -73.31567383 104.24682617 C-73.31251898 102.19981241 -73.33605854 100.15425803 -73.36132812 98.10742188 C-73.49541994 70.19854409 -61.89860108 47.42546069 -42.875 27.5 C-31.99099509 16.87333596 -19.39009069 9.07606419 -6 2 C-5.23042969 1.58878906 -4.46085937 1.17757813 -3.66796875 0.75390625 C-2 0 -2 0 0 0 Z " fill="#9A21AE" transform="translate(443,388)"/>
<path d="M0 0 C0.886875 -0.00257813 1.77375 -0.00515625 2.6875 -0.0078125 C5 0.125 5 0.125 7 1.125 C7.625 4.1875 7.625 4.1875 8 7.125 C8.7425 6.34125 9.485 5.5575 10.25 4.75 C14.83721077 0.37129881 18.2853188 -0.38143036 24.51953125 -0.26171875 C28.63406983 0.37976049 30.25880678 2.03237176 33 5.125 C33.875 7.4375 33.875 7.4375 34 9.125 C34.680625 8.3825 35.36125 7.64 36.0625 6.875 C40.88828606 2.15675235 44.86287675 -0.11142262 51.625 -0.375 C55.11697896 -0.22671048 56.85673 0.05038021 60 1.6875 C64.94303566 7.71182471 65.42796789 13.27319158 65.29296875 20.77734375 C65.28872391 21.67747696 65.28447906 22.57761017 65.28010559 23.50502014 C65.26341816 26.35782786 65.22578497 29.20990863 65.1875 32.0625 C65.1724403 34.00584912 65.15875415 35.94920939 65.14648438 37.89257812 C65.11354726 42.63699549 65.0618344 47.38087483 65 52.125 C66.65 52.125 68.3 52.125 70 52.125 C70.625 54.5 70.625 54.5 71 57.125 C69 59.125 69 59.125 65.55859375 59.35546875 C64.18482696 59.35147911 62.81105886 59.33673177 61.4375 59.3125 C60.73947266 59.31185547 60.04144531 59.31121094 59.32226562 59.31054688 C54.14031158 59.26531158 54.14031158 59.26531158 53 58.125 C52.95936168 56.45882885 52.957279 54.79111905 53 53.125 C55.475 52.63 55.475 52.63 58 52.125 C57.90598752 47.12590524 57.79979077 42.12726773 57.68261719 37.12866211 C57.64448871 35.43049076 57.60960854 33.73224308 57.578125 32.03393555 C57.53212178 29.58354533 57.47418849 27.13367333 57.4140625 24.68359375 C57.40251129 23.93226669 57.39096008 23.18093964 57.37905884 22.40684509 C57.24947023 17.70963584 56.6723484 13.57369981 55 9.125 C52.2019983 6.84608285 52.2019983 6.84608285 49.125 7.1875 C44.10238057 8.69428583 41.83740338 11.68945134 39.25 16.125 C37.22331114 20.98905327 36.85116892 25.49557245 36.68359375 30.73828125 C36.62075195 32.6090332 36.62075195 32.6090332 36.55664062 34.51757812 C36.51732422 35.81115234 36.47800781 37.10472656 36.4375 38.4375 C36.37272461 40.40686523 36.37272461 40.40686523 36.30664062 42.41601562 C36.20072773 45.65224288 36.09865115 48.88854458 36 52.125 C37.65 52.125 39.3 52.125 41 52.125 C41.625 53.9375 41.625 53.9375 42 56.125 C41.34 57.115 40.68 58.105 40 59.125 C37.40573202 59.40168225 35.08736354 59.49795242 32.5 59.4375 C31.81035156 59.44072266 31.12070312 59.44394531 30.41015625 59.44726562 C25.26712592 59.39212592 25.26712592 59.39212592 23 57.125 C23.375 54.5 23.375 54.5 24 52.125 C25.65 52.125 27.3 52.125 29 52.125 C28.90598752 47.12590524 28.79979077 42.12726773 28.68261719 37.12866211 C28.64448871 35.43049076 28.60960854 33.73224308 28.578125 32.03393555 C28.53212178 29.58354533 28.47418849 27.13367333 28.4140625 24.68359375 C28.40251129 23.93226669 28.39096008 23.18093964 28.37905884 22.40684509 C28.24805857 17.65846719 27.6697085 13.59308873 26 9.125 C23.30943404 7.28363268 23.30943404 7.28363268 20 7.125 C14.79033731 8.79209206 12.55666588 11.37690622 10 16.125 C8.41780379 20.89119675 7.71957371 25.14098595 7.5859375 30.15234375 C7.52792969 32.08110352 7.52792969 32.08110352 7.46875 34.04882812 C7.43730501 35.38671418 7.40605741 36.72460489 7.375 38.0625 C7.33675658 39.42775756 7.2977013 40.79299264 7.2578125 42.15820312 C7.16390063 45.4803354 7.07822213 48.80246741 7 52.125 C8.65 52.455 10.3 52.785 12 53.125 C12.042721 54.79111905 12.04063832 56.45882885 12 58.125 C9.95733571 60.16766429 5.86308566 59.31007944 3.0625 59.3125 C2.32064453 59.32474609 1.57878906 59.33699219 0.81445312 59.34960938 C-1.12513629 59.35488478 -3.0642371 59.24688902 -5 59.125 C-5.66 58.465 -6.32 57.805 -7 57.125 C-6.625 54.5 -6.625 54.5 -6 52.125 C-4.35 52.125 -2.7 52.125 -1 52.125 C-1 37.605 -1 23.085 -1 8.125 C-3.97 7.63 -3.97 7.63 -7 7.125 C-7 5.145 -7 3.165 -7 1.125 C-4.51245214 -0.11877393 -2.77344699 -0.00806235 0 0 Z " fill="#000000" transform="translate(394,591.875)"/>
<path d="M0 0 C2.84786899 1.97160161 3.76167478 3.30204758 4.875 6.5625 C5 9 5 9 3 12 C-0.51843231 12.45892595 -2.34860502 12.41140736 -5.375 10.5 C-5.91125 10.005 -6.4475 9.51 -7 9 C-7.99 10.98 -8.98 12.96 -10 15 C-9.0925 15.680625 -8.185 16.36125 -7.25 17.0625 C-3.00893179 20.59171043 0.32181635 25.40498489 1 31 C1.55474153 37.5459501 0.52968272 42.39403333 -3 48 C-7.88761639 53.56510777 -14.00056802 56.91616433 -21.40234375 57.51171875 C-22.91348527 57.58367787 -24.42532608 57.64214774 -25.9375 57.6875 C-26.71673828 57.72166016 -27.49597656 57.75582031 -28.29882812 57.79101562 C-30.19874393 57.8726071 -32.09934403 57.93799885 -34 58 C-34.99 59.98 -35.98 61.96 -37 64 C-36.26362305 63.98952637 -35.52724609 63.97905273 -34.76855469 63.96826172 C-31.42907124 63.92666298 -28.08964235 63.90066136 -24.75 63.875 C-23.59113281 63.85824219 -22.43226563 63.84148438 -21.23828125 63.82421875 C-20.12324219 63.81777344 -19.00820313 63.81132813 -17.859375 63.8046875 C-16.31975098 63.78897705 -16.31975098 63.78897705 -14.74902344 63.77294922 C-11.91747383 64.0068161 -10.34837821 64.43072006 -8 66 C-5.33163589 70.00254616 -5.1659762 73.29313299 -6 78 C-8.18159145 80.75569447 -9.87177494 82.43588747 -13 84 C-20.13897709 84.72218508 -25.26235486 84.44960235 -31 80 C-35 74.97435897 -35 74.97435897 -35 71 C-35.77085937 71.02320313 -36.54171875 71.04640625 -37.3359375 71.0703125 C-38.84027344 71.09738281 -38.84027344 71.09738281 -40.375 71.125 C-41.37273438 71.14820313 -42.37046875 71.17140625 -43.3984375 71.1953125 C-46 71 -46 71 -48 69 C-47.86955661 64.5649248 -45.54517178 61.43668109 -43.15625 57.8671875 C-41.83827223 55.89916091 -41.83827223 55.89916091 -41 53 C-41.59425781 52.75121094 -42.18851563 52.50242187 -42.80078125 52.24609375 C-45.31884001 50.81934287 -46.49732092 49.39572921 -48.1875 47.0625 C-48.69667969 46.37285156 -49.20585938 45.68320312 -49.73046875 44.97265625 C-53.02532439 39.85295749 -52.4274489 33.85993582 -52 28 C-49.59591697 21.04081229 -44.28618434 16.57449698 -38 13 C-32.73631554 11.15309317 -28.99071758 11.06695092 -23.4375 11.5 C-18.52179139 11.63817115 -18.52179139 11.63817115 -14.6796875 8.81640625 C-12.78464337 6.10896726 -12.78464337 6.10896726 -11.26953125 3.28515625 C-8.84351949 -1.08166491 -4.53678842 -0.64682924 0 0 Z M-40.703125 22.5 C-44.28651357 26.61883744 -45.4481571 30.37104489 -45.328125 35.8125 C-44.55838228 40.94411816 -41.94727336 44.55355414 -37.828125 47.61328125 C-31.71318657 51.06997415 -25.94607659 52.1505771 -19 51 C-14.17011115 49.31848314 -10.62553461 46.37589101 -8 42 C-6.23066356 37.34892254 -5.69118981 34.08991832 -7.0625 29.25 C-10.0380295 24.25878922 -13.64912728 20.37816565 -19 18 C-26.84560285 16.05260929 -34.46776861 17.00830997 -40.703125 22.5 Z M-26 71 C-24.92598892 73.91517292 -24.22189824 75.77810176 -22 78 C-17.34805286 78.34216235 -17.34805286 78.34216235 -13 77 C-13 75.35 -13 73.7 -13 72 C-17.63339845 69.9407118 -21.10492798 69.60140799 -26 71 Z " fill="#000000" transform="translate(984,580)"/>
<path d="M0 0 C5.94 0 11.88 0 18 0 C18.33 1.65 18.66 3.3 19 5 C18.34 5.66 17.68 6.32 17 7 C15.68 7 14.36 7 13 7 C13.33 12.61 13.66 18.22 14 24 C15.0725 23.195625 16.145 22.39125 17.25 21.5625 C22.11926086 17.91055436 26.97410393 17.37935527 33 18 C39.88016272 20.21564562 43.94265213 24.16823866 48 30 C52.39652549 39.33583191 52.38331831 51.51732442 50 61.4375 C47.79033287 67.57892226 43.5672613 72.8704942 37.9453125 76.2265625 C31.33622958 78.97820403 24.86641963 78.58711157 18.2109375 76.16796875 C12.24726982 73.01755066 8.66422291 67.38955613 6.5078125 61.15234375 C4.95740589 54.58100495 4.86576703 48.19224607 4.90234375 41.47265625 C4.9037587 40.48373886 4.90517365 39.49482147 4.90663147 38.47593689 C4.91219912 35.33809296 4.9247456 32.20032213 4.9375 29.0625 C4.94251918 26.92643333 4.94708136 24.79036553 4.95117188 22.65429688 C4.96215794 17.43617325 4.97886364 12.21809185 5 7 C3.35 6.67 1.7 6.34 0 6 C0 4.02 0 2.04 0 0 Z M16.78125 30.68359375 C13.23539205 36.5722507 12.79662828 41.56888456 12.75 48.3125 C12.729375 49.04662109 12.70875 49.78074219 12.6875 50.53710938 C12.63494755 57.94043533 14.82918619 63.51580353 20 69 C23.55175509 71.66381631 27.73344688 71.54502874 32 71 C37.06577466 68.8125064 40.01698755 65.27644989 42.1875 60.25 C44.58348193 50.66607226 44.15333686 41.92167635 40.75 32.5625 C38.12139446 28.71347046 35.58376272 25.5324959 30.8203125 24.55078125 C24.8705085 24.2603026 20.42983265 25.64340426 16.78125 30.68359375 Z " fill="#000000" transform="translate(765,574)"/>
<path d="M0 0 C0.9796875 -0.00257813 1.959375 -0.00515625 2.96875 -0.0078125 C5.5 0.125 5.5 0.125 7.5 1.125 C7.90729228 3.44656597 8.24438677 5.7818787 8.5 8.125 C8.95890625 7.71507812 9.4178125 7.30515625 9.890625 6.8828125 C10.50421875 6.34398437 11.1178125 5.80515625 11.75 5.25 C12.35328125 4.71632813 12.9565625 4.18265625 13.578125 3.6328125 C19.36635206 -0.90835751 25.37240928 -0.57622001 32.5 0.125 C37.67511503 2.39478729 40.41623876 5.93754815 42.5 11.125 C43.00957652 14.35757576 42.96896087 17.51152132 42.890625 20.77734375 C42.88496521 21.67747696 42.87930542 22.57761017 42.87347412 23.50502014 C42.8512223 26.35807231 42.80104799 29.20983244 42.75 32.0625 C42.72992048 34.00584114 42.71167226 35.94920211 42.6953125 37.89257812 C42.65139435 42.63721068 42.58244565 47.38088687 42.5 52.125 C44.48 52.125 46.46 52.125 48.5 52.125 C49.125 54.5 49.125 54.5 49.5 57.125 C47.5 59.125 47.5 59.125 43.62109375 59.35546875 C42.05983524 59.35147576 40.49857586 59.33671261 38.9375 59.3125 C38.14408203 59.31185547 37.35066406 59.31121094 36.53320312 59.31054688 C30.64025522 59.26525522 30.64025522 59.26525522 29.5 58.125 C29.375 55.625 29.375 55.625 29.5 53.125 C30.5 52.125 30.5 52.125 33.0625 52.0625 C33.866875 52.083125 34.67125 52.10375 35.5 52.125 C35.43082593 47.12574063 35.34271747 42.12729407 35.23754883 37.12866211 C35.20442917 35.43051214 35.17635739 33.73225552 35.15356445 32.03393555 C35.11977831 29.58336213 35.06745361 27.13375469 35.01171875 24.68359375 C35.00532883 23.93226669 34.9989389 23.18093964 34.99235535 22.40684509 C34.85214484 17.30522993 33.84657316 13.67541249 31.5 9.125 C28.92066253 6.91413931 27.55140954 7.12309594 24.125 7.25 C17.68687933 8.80402913 14.17302225 12.08574502 10.48046875 17.34375 C8.29091542 21.32158393 8.32084402 25.38893774 8.18359375 29.859375 C8.14169922 31.15488281 8.09980469 32.45039062 8.05664062 33.78515625 C8.01683329 35.14843476 7.97712094 36.51171606 7.9375 37.875 C7.89427726 39.25391875 7.85066179 40.63282526 7.80664062 42.01171875 C7.70056042 45.3827119 7.5985015 48.75377826 7.5 52.125 C8.304375 52.104375 9.10875 52.08375 9.9375 52.0625 C12.5 52.125 12.5 52.125 13.5 53.125 C13.625 55.625 13.625 55.625 13.5 58.125 C11.9779041 59.6470959 10.61789918 59.25459521 8.5 59.2578125 C7.695625 59.25910156 6.89125 59.26039063 6.0625 59.26171875 C5.216875 59.25785156 4.37125 59.25398437 3.5 59.25 C2.654375 59.25386719 1.80875 59.25773438 0.9375 59.26171875 C0.133125 59.26042969 -0.67125 59.25914062 -1.5 59.2578125 C-2.2425 59.25668457 -2.985 59.25555664 -3.75 59.25439453 C-5.5 59.125 -5.5 59.125 -6.5 58.125 C-6.625 55.625 -6.625 55.625 -6.5 53.125 C-6.005 52.63 -6.005 52.63 -5.5 52.125 C-3.85 52.125 -2.2 52.125 -0.5 52.125 C-0.5 37.605 -0.5 23.085 -0.5 8.125 C-2.81 7.795 -5.12 7.465 -7.5 7.125 C-7.5 5.145 -7.5 3.165 -7.5 1.125 C-4.89080172 -0.17959914 -2.91057385 -0.0076594 0 0 Z " fill="#000000" transform="translate(590.5,591.875)"/>
<path d="M0 0 C5.51029446 4.41037134 9.73776024 10.61142721 11.015625 17.61328125 C11.94292167 29.14152506 11.2585842 37.99925661 4.890625 47.92578125 C-1.97201626 54.34085895 -9.65980298 56.83236077 -18.984375 56.61328125 C-26.04997335 56.0563868 -31.67656587 53.282092 -36.984375 48.61328125 C-44.25152821 39.89623373 -44.89127191 29.56492242 -43.984375 18.61328125 C-42.08576538 10.13206703 -36.95293299 2.82237898 -29.609375 -1.88671875 C-20.86134967 -5.69689384 -8.11068815 -4.896759 0 0 Z M-32.7578125 11.63671875 C-36.77918653 18.11702213 -36.6823577 25.24470441 -35.984375 32.61328125 C-34.30364172 39.3966 -30.73306903 43.75904321 -24.984375 47.61328125 C-20.84374537 49.94902104 -16.65148891 50.17591751 -11.984375 49.61328125 C-6.12802231 47.70100282 -2.36131713 43.62340447 1.015625 38.61328125 C4.5115706 31.29923806 4.81916173 24.09213336 2.29296875 16.41796875 C-0.38076871 10.32971808 -4.71554144 6.41113971 -10.484375 3.23828125 C-20.00159413 0.85897647 -26.70236262 4.49873034 -32.7578125 11.63671875 Z " fill="#000000" transform="translate(904.984375,595.38671875)"/>
<path d="M0 0 C7.22846819 4.59698089 12.00462359 11.61317175 13.9296875 19.8828125 C15.61426434 29.78339566 14.45909696 39.48253269 8.625 47.8125 C3.66961496 53.82454802 -1.17782929 57.05356268 -8.9453125 58.28125 C-16.73519536 58.91715881 -24.18834234 58.22203004 -30.625 53.5 C-38.71708841 46.15687752 -41.09905893 38.61196056 -41.68359375 27.87890625 C-41.54280683 19.7601941 -39.62399094 12.48628913 -34.375 6.1875 C-25.87005459 -2.01369736 -11.04080065 -4.96289455 0 0 Z M-29 12.3125 C-33.25998959 18.5867238 -34.42421327 25.04483875 -33.625 32.5 C-32.20360987 39.21828929 -29.63943894 44.73468906 -23.8046875 48.75390625 C-19.13500522 51.38174706 -14.93826448 52.49236068 -9.625 51.5 C-2.91113546 49.47317297 0.85149612 45.42273185 4.375 39.5 C7.5140092 33.07929937 7.46215989 24.92101024 5.1875 18.1875 C2.4746066 12.04581077 -1.409917 7.92343293 -7.51953125 5.1953125 C-15.99146477 2.39753112 -23.55263865 5.50329831 -29 12.3125 Z " fill="#000000" transform="translate(556.625,593.5)"/>
<path d="M0 0 C3.27695948 1.20238247 5.26269253 3.07035145 7.4375 5.8125 C8.26437347 9.02811906 7.61935377 11.7793604 7 15 C4.11885589 15.88034959 2.57215123 16.23839635 -0.25 15.0625 C-2.91845216 11.91753852 -2.73300145 9.07172791 -3 5 C-5.31 5.66 -7.62 6.32 -10 7 C-10.88556744 8.68973726 -10.88556744 8.68973726 -11 11 C-8.17775007 16.11843815 -4.74778977 18.99217036 -0.0625 22.375 C6.4121285 27.27483123 11.35526416 31.66496728 13 39.9375 C13.29677092 44.65801242 12.26947419 48.85840063 10 53 C6.91690843 56.40350524 3.40365757 59.7895788 -1.3203125 60.203125 C-8.7344787 60.32703864 -14.61519593 59.95085483 -20.4375 54.875 C-22.56221838 50.96551817 -23.36714305 47.45258589 -23 43 C-21.93362378 40.5696542 -20.73827267 39.05432225 -19 37 C-16.69 37.33 -14.38 37.66 -12 38 C-10.87550845 42.72286451 -11.26055884 45.497917 -13 50 C-13 50.66 -13 51.32 -13 52 C-9.10627901 53.297907 -5.04344947 53.6805806 -1 53 C2.1866503 51.2301177 2.1866503 51.2301177 4 48 C4.63915665 44.87209178 4.77078103 42.10438704 4 39 C1.31281795 34.96294847 -1.86991221 32.4559153 -5.8125 29.6875 C-18.16703215 20.52367322 -18.16703215 20.52367322 -19.59375 14.48828125 C-19.85865905 10.05767733 -19.43656076 6.94774202 -16.625 3.4375 C-11.68199886 -1.15242963 -6.50374219 -0.61980833 0 0 Z " fill="#000000" transform="translate(699,592)"/>
<path d="M0 0 C2.14576637 -0.02685938 4.29162645 -0.04633088 6.4375 -0.0625 C7.63246094 -0.07410156 8.82742188 -0.08570313 10.05859375 -0.09765625 C13 0 13 0 14 1 C14.09425595 3.14743549 14.11742648 5.29801026 14.11352539 7.44750977 C14.11367142 8.12065216 14.11381744 8.79379456 14.1139679 9.48733521 C14.11326878 11.72205784 14.10547652 13.9566981 14.09765625 16.19140625 C14.09579206 17.73697362 14.09436816 19.28254157 14.09336853 20.82810974 C14.0895434 24.90357077 14.07971317 28.97899637 14.06866455 33.05444336 C14.05845032 37.21011882 14.05387089 41.36579999 14.04882812 45.52148438 C14.03809089 53.68100587 14.02101454 61.84049853 14 70 C15.65 70 17.3 70 19 70 C19.625 72.375 19.625 72.375 20 75 C17.44051001 77.55948999 15.72792805 77.26068731 12.234375 77.2734375 C11.49703125 77.26570312 10.7596875 77.25796875 10 77.25 C9.26265625 77.25773438 8.5253125 77.26546875 7.765625 77.2734375 C2.2533196 77.2533196 2.2533196 77.2533196 0 75 C0.375 72.375 0.375 72.375 1 70 C2.65 70 4.3 70 6 70 C6 49.21 6 28.42 6 7 C4.35 7 2.7 7 1 7 C0.34 6.34 -0.32 5.68 -1 5 C-0.625 2.375 -0.625 2.375 0 0 Z " fill="#000000" transform="translate(829,574)"/>
<path d="M0 0 C1.21983748 2.43967497 1.12051527 3.99904524 1.11352539 6.72509766 C1.11344986 7.70596344 1.11337433 8.68682922 1.11329651 9.69741821 C1.10813522 10.75891083 1.10297394 11.82040344 1.09765625 12.9140625 C1.0962413 13.99883881 1.09482635 15.08361511 1.09336853 16.20126343 C1.08775802 19.67587 1.07520372 23.15041281 1.0625 26.625 C1.05748635 28.97656157 1.05292321 31.32812415 1.04882812 33.6796875 C1.03778518 39.45314686 1.02103679 45.22656888 1 51 C2.65 51 4.3 51 6 51 C6.625 53.375 6.625 53.375 7 56 C4.44051001 58.55948999 2.72792805 58.26068731 -0.765625 58.2734375 C-1.50296875 58.26570312 -2.2403125 58.25796875 -3 58.25 C-3.73734375 58.25773438 -4.4746875 58.26546875 -5.234375 58.2734375 C-10.7466804 58.2533196 -10.7466804 58.2533196 -13 56 C-12.625 53.375 -12.625 53.375 -12 51 C-10.35 51 -8.7 51 -7 51 C-7 36.48 -7 21.96 -7 7 C-8.65 6.67 -10.3 6.34 -12 6 C-13 5 -13 5 -13.0625 2.4375 C-13.041875 1.633125 -13.02125 0.82875 -13 0 C-8.52745503 -1.49084832 -4.47254497 -1.49084832 0 0 Z " fill="#000000" transform="translate(494,593)"/>
<path d="M0 0 C2.5 0.25 2.5 0.25 4.5 2.25 C4.94676219 8.5046706 3.89663925 14.16464325 2.5 20.25 C0.85 19.92 -0.8 19.59 -2.5 19.25 C-3.78744624 13.5369573 -4.98919253 8.12031033 -4.5 2.25 C-2.5 0.25 -2.5 0.25 0 0 Z " fill="#000000" transform="translate(658.5,571.75)"/>
<path d="M0 0 C3.0625 0.25 3.0625 0.25 6.0625 2.25 C6.5625 5.6875 6.5625 5.6875 6.0625 9.25 C3.875 11.3125 3.875 11.3125 1.0625 12.25 C-2.11185434 11.43795587 -3.61930575 10.56819425 -5.9375 8.25 C-5.2875 0.45 -5.2875 0.45 0 0 Z " fill="#000000" transform="translate(488.9375,573.75)"/>
</svg>
