<!-- Generated by IcoMoon.io -->
<svg version="1.1" xmlns="http://www.w3.org/2000/svg" width="32" height="32" viewBox="0 0 32 32"></svg>
<path fill="#9a25af" d="M9.76 14.453c0.108 0.323-0.18 0.881-0.32 1.173-0.318 0.625-0.819 1.099-1.486 1.326-0.377 0.119-0.76 0.172-1.154 0.169-0.028-0-0.057-0-0.086-0-0.069-0-0.138-0.001-0.208-0.001 0.013-0.171 0.036-0.332 0.083-0.497 0.006-0.020 0.012-0.041 0.018-0.062 0.063-0.214 0.149-0.415 0.246-0.615 0.013-0.027 0.026-0.053 0.039-0.081 0.315-0.61 0.837-1.047 1.487-1.258 0.457-0.137 0.905-0.168 1.381-0.155z"></path>
<path fill="#9a25b0" d="M9.188 13.182c0.107 0.090 0.211 0.183 0.312 0.28 0.025 0.024 0.050 0.048 0.075 0.072 0.051 0.066 0.051 0.066 0.046 0.12-0.038 0.092-0.131 0.125-0.215 0.169-0.019 0.010-0.039 0.021-0.059 0.032-0.748 0.401-1.537 0.598-2.37 0.352-0.593-0.189-1.146-0.576-1.565-1.034 0-0.026 0-0.053 0-0.080 1.153-0.905 2.661-0.797 3.775 0.088z"></path>
<path fill="#9a25af" d="M8.080 9.147c0.128 0.036 0.227 0.092 0.333 0.17 0.016 0.012 0.032 0.023 0.049 0.035 0.681 0.503 1.195 1.127 1.358 1.976 0.088 0.659-0.026 1.272-0.22 1.898-0.504-0.114-1.054-0.725-1.325-1.14-0.443-0.705-0.548-1.53-0.37-2.343 0.049-0.202 0.111-0.399 0.175-0.597z"></path>
<path fill="#9a21ae" d="M11.813 10.347c0.017 0.059 0.034 0.119 0.050 0.178 0.009 0.033 0.019 0.066 0.028 0.1 0.068 0.272 0.092 0.543 0.090 0.823-0 0.031-0 0.063-0 0.095-0.009 0.686-0.245 1.249-0.701 1.763-0.018 0.020-0.035 0.040-0.054 0.060-0.299 0.316-0.766 0.699-1.2 0.793-0.017-0.051-0.034-0.102-0.050-0.153-0.009-0.028-0.019-0.057-0.028-0.086-0.074-0.262-0.091-0.523-0.090-0.794 0-0.055-0.001-0.109-0.001-0.164-0.004-0.744 0.306-1.352 0.813-1.883 0.29-0.283 0.626-0.491 0.983-0.68 0.021-0.011 0.041-0.022 0.062-0.033 0.044-0.020 0.044-0.020 0.098-0.020z"></path>
<path fill="#000" d="M10.507 15.783c0.024-0 0.047-0 0.072-0 0.062 0.004 0.062 0.004 0.115 0.030 0.017 0.082 0.017 0.082 0.027 0.16 0.020-0.021 0.040-0.042 0.060-0.063 0.122-0.117 0.214-0.137 0.381-0.134 0.11 0.017 0.153 0.061 0.226 0.144 0.023 0.062 0.023 0.062 0.027 0.107 0.018-0.020 0.036-0.040 0.055-0.060 0.129-0.126 0.235-0.186 0.415-0.193 0.093 0.004 0.139 0.011 0.223 0.055 0.132 0.161 0.145 0.309 0.141 0.509-0 0.024-0 0.048-0 0.073-0 0.076-0.001 0.152-0.002 0.228-0 0.052-0.001 0.104-0.001 0.155-0.001 0.127-0.002 0.253-0.004 0.38 0.044 0 0.088 0 0.133 0 0.017 0.063 0.017 0.063 0.027 0.133-0.053 0.053-0.053 0.053-0.145 0.059-0.037-0-0.073-0-0.11-0.001-0.019-0-0.037-0-0.056-0-0.138-0.001-0.138-0.001-0.169-0.032-0.001-0.044-0.001-0.089 0-0.133 0.066-0.013 0.066-0.013 0.133-0.027-0.002-0.133-0.005-0.267-0.008-0.4-0.001-0.045-0.002-0.091-0.003-0.136-0.001-0.065-0.003-0.131-0.004-0.196-0-0.020-0.001-0.040-0.001-0.061-0.003-0.125-0.019-0.236-0.063-0.354-0.075-0.061-0.075-0.061-0.157-0.052-0.134 0.040-0.194 0.12-0.263 0.238-0.054 0.13-0.064 0.25-0.068 0.39-0.002 0.050-0.002 0.050-0.003 0.101-0.001 0.035-0.002 0.069-0.003 0.105-0.002 0.053-0.002 0.053-0.004 0.106-0.003 0.086-0.006 0.173-0.008 0.259 0.044 0 0.088 0 0.133 0 0.017 0.048 0.017 0.048 0.027 0.107-0.018 0.026-0.035 0.053-0.053 0.080-0.069 0.007-0.131 0.010-0.2 0.008-0.018 0-0.037 0-0.056 0-0.137-0.001-0.137-0.001-0.198-0.062 0.010-0.070 0.010-0.070 0.027-0.133 0.044 0 0.088 0 0.133 0-0.002-0.133-0.005-0.267-0.008-0.4-0.001-0.045-0.002-0.091-0.003-0.136-0.001-0.065-0.003-0.131-0.004-0.196-0-0.020-0.001-0.040-0.001-0.061-0.004-0.127-0.019-0.235-0.063-0.354-0.072-0.049-0.072-0.049-0.16-0.053-0.139 0.044-0.198 0.113-0.267 0.24-0.042 0.127-0.061 0.24-0.064 0.374-0.002 0.051-0.002 0.051-0.003 0.104-0.001 0.036-0.002 0.071-0.002 0.107s-0.002 0.073-0.003 0.109c-0.002 0.089-0.005 0.177-0.007 0.266 0.044 0.009 0.088 0.018 0.133 0.027 0.001 0.044 0.001 0.089 0 0.133-0.054 0.054-0.164 0.032-0.238 0.032-0.020 0-0.040 0.001-0.060 0.001-0.052 0-0.103-0.003-0.155-0.006-0.018-0.018-0.035-0.035-0.053-0.053 0.010-0.070 0.010-0.070 0.027-0.133 0.044 0 0.088 0 0.133 0 0-0.387 0-0.774 0-1.173-0.079-0.013-0.079-0.013-0.16-0.027 0-0.053 0-0.106 0-0.16 0.066-0.033 0.113-0.030 0.187-0.030z"></path>
<path fill="#000" d="M26.24 15.467c0.076 0.053 0.1 0.088 0.13 0.175 0.003 0.065 0.003 0.065-0.050 0.145-0.094 0.012-0.143 0.011-0.223-0.040-0.014-0.013-0.029-0.026-0.043-0.040-0.026 0.053-0.053 0.106-0.080 0.16 0.024 0.018 0.048 0.036 0.073 0.055 0.113 0.094 0.202 0.222 0.22 0.372 0.015 0.175-0.013 0.304-0.107 0.453-0.13 0.148-0.293 0.238-0.491 0.254-0.040 0.002-0.081 0.003-0.121 0.005-0.021 0.001-0.042 0.002-0.063 0.003-0.051 0.002-0.101 0.004-0.152 0.006-0.026 0.053-0.053 0.106-0.080 0.16 0.020-0 0.039-0.001 0.059-0.001 0.089-0.001 0.178-0.002 0.267-0.003 0.031-0 0.062-0.001 0.094-0.001 0.030-0 0.059-0 0.090-0.001 0.041-0 0.041-0 0.083-0.001 0.076 0.006 0.117 0.018 0.18 0.059 0.071 0.107 0.076 0.194 0.053 0.32-0.058 0.073-0.103 0.118-0.187 0.16-0.19 0.019-0.327 0.012-0.48-0.107-0.107-0.134-0.107-0.134-0.107-0.24-0.021 0.001-0.041 0.001-0.062 0.002-0.040 0.001-0.040 0.001-0.081 0.001-0.027 0.001-0.053 0.001-0.081 0.002-0.069-0.005-0.069-0.005-0.123-0.059 0.003-0.118 0.065-0.202 0.129-0.297 0.035-0.052 0.035-0.052 0.058-0.13-0.016-0.007-0.032-0.013-0.048-0.020-0.067-0.038-0.099-0.076-0.144-0.138-0.014-0.018-0.027-0.037-0.041-0.056-0.088-0.137-0.072-0.296-0.061-0.453 0.064-0.186 0.206-0.305 0.373-0.4 0.14-0.049 0.24-0.052 0.388-0.040 0.131 0.004 0.131 0.004 0.234-0.072 0.051-0.072 0.051-0.072 0.091-0.148 0.065-0.116 0.18-0.105 0.301-0.088zM25.155 16.067c-0.096 0.11-0.127 0.21-0.123 0.355 0.021 0.137 0.090 0.233 0.2 0.315 0.163 0.092 0.317 0.121 0.502 0.090 0.129-0.045 0.223-0.123 0.293-0.24 0.047-0.124 0.062-0.211 0.025-0.34-0.079-0.133-0.176-0.237-0.318-0.3-0.209-0.052-0.412-0.026-0.579 0.12zM25.547 17.36c0.029 0.078 0.047 0.127 0.107 0.187 0.124 0.009 0.124 0.009 0.24-0.027 0-0.044 0-0.088 0-0.133-0.124-0.055-0.216-0.064-0.347-0.027z"></path>
<path fill="#000" d="M20.4 15.307c0.158 0 0.317 0 0.48 0 0.009 0.044 0.018 0.088 0.027 0.133-0.018 0.018-0.035 0.035-0.053 0.053-0.035 0-0.070 0-0.107 0 0.009 0.15 0.018 0.299 0.027 0.453 0.029-0.021 0.057-0.043 0.087-0.065 0.13-0.097 0.259-0.112 0.42-0.095 0.183 0.059 0.292 0.165 0.4 0.32 0.117 0.249 0.117 0.574 0.053 0.838-0.059 0.164-0.172 0.305-0.321 0.394-0.176 0.073-0.349 0.063-0.526-0.002-0.159-0.084-0.255-0.234-0.312-0.4-0.041-0.175-0.044-0.346-0.043-0.525 0-0.026 0-0.053 0-0.080 0-0.084 0-0.167 0.001-0.251 0-0.057 0-0.114 0-0.171 0-0.139 0.001-0.278 0.001-0.417-0.044-0.009-0.088-0.018-0.133-0.027 0-0.053 0-0.106 0-0.16zM20.848 16.125c-0.095 0.157-0.106 0.29-0.108 0.47-0.001 0.020-0.001 0.039-0.002 0.059-0.001 0.197 0.057 0.346 0.195 0.492 0.095 0.071 0.206 0.068 0.32 0.053 0.135-0.058 0.214-0.153 0.272-0.287 0.064-0.256 0.052-0.489-0.038-0.738-0.070-0.103-0.138-0.187-0.265-0.214-0.159-0.008-0.277 0.029-0.374 0.164z"></path>
<path fill="#000" d="M15.747 15.783c0.026-0 0.052-0 0.079-0 0.068 0.004 0.068 0.004 0.121 0.030 0.011 0.062 0.020 0.124 0.027 0.187 0.012-0.011 0.024-0.022 0.037-0.033 0.016-0.014 0.033-0.029 0.050-0.044s0.032-0.028 0.049-0.043c0.154-0.121 0.314-0.112 0.505-0.094 0.138 0.061 0.211 0.155 0.267 0.293 0.014 0.086 0.012 0.17 0.010 0.257-0 0.024-0 0.048-0 0.073-0.001 0.076-0.002 0.152-0.003 0.228-0.001 0.052-0.001 0.104-0.001 0.155-0.001 0.127-0.003 0.253-0.005 0.38 0.053 0 0.106 0 0.16 0 0.017 0.063 0.017 0.063 0.027 0.133-0.053 0.053-0.053 0.053-0.157 0.059-0.042-0-0.083-0-0.125-0.001-0.021-0-0.042-0-0.064-0-0.157-0.001-0.157-0.001-0.188-0.032-0.003-0.067-0.003-0.067 0-0.133 0.027-0.027 0.027-0.027 0.095-0.028 0.021 0.001 0.043 0.001 0.065 0.002-0.002-0.133-0.004-0.267-0.007-0.4-0.001-0.045-0.002-0.091-0.002-0.136-0.001-0.065-0.002-0.131-0.004-0.196-0-0.020-0-0.040-0.001-0.061-0.004-0.136-0.031-0.233-0.093-0.354-0.069-0.059-0.105-0.053-0.197-0.050-0.172 0.041-0.265 0.129-0.364 0.269-0.058 0.106-0.058 0.215-0.061 0.334-0.001 0.035-0.002 0.069-0.003 0.105s-0.002 0.073-0.003 0.109c-0.001 0.037-0.002 0.074-0.004 0.11-0.003 0.090-0.006 0.18-0.008 0.27 0.021-0.001 0.043-0.001 0.065-0.002 0.068 0.002 0.068 0.002 0.095 0.028 0.003 0.067 0.003 0.067 0 0.133-0.041 0.041-0.077 0.030-0.133 0.030-0.021 0-0.043 0-0.065 0s-0.045-0-0.068-0c-0.023 0-0.045 0-0.068 0-0.021-0-0.043-0-0.065-0-0.020-0-0.040-0-0.060-0-0.047-0.003-0.047-0.003-0.073-0.030-0.003-0.067-0.003-0.067 0-0.133 0.013-0.013 0.013-0.013 0.027-0.027 0.044 0 0.088 0 0.133 0 0-0.387 0-0.774 0-1.173-0.062-0.009-0.123-0.018-0.187-0.027 0-0.053 0-0.106 0-0.16 0.070-0.035 0.122-0.030 0.2-0.030z"></path>
<path fill="#000" d="M24.133 15.877c0.147 0.118 0.26 0.283 0.294 0.47 0.025 0.307 0.006 0.544-0.163 0.808-0.183 0.171-0.388 0.238-0.637 0.232-0.188-0.015-0.338-0.089-0.48-0.213-0.194-0.232-0.211-0.508-0.187-0.8 0.051-0.226 0.188-0.421 0.383-0.547 0.233-0.102 0.573-0.080 0.79 0.050zM23.259 16.187c-0.107 0.173-0.105 0.363-0.086 0.559 0.045 0.181 0.14 0.297 0.293 0.4 0.11 0.062 0.222 0.068 0.347 0.053 0.156-0.051 0.257-0.16 0.347-0.293 0.093-0.195 0.101-0.387 0.034-0.592-0.071-0.162-0.187-0.267-0.341-0.351-0.254-0.063-0.432 0.034-0.594 0.224z"></path>
<path fill="#000" d="M14.843 15.827c0.193 0.123 0.32 0.31 0.371 0.53 0.045 0.264 0.014 0.523-0.141 0.745-0.132 0.16-0.261 0.246-0.469 0.279-0.208 0.017-0.406-0.002-0.578-0.128-0.216-0.196-0.279-0.397-0.295-0.683 0.004-0.216 0.055-0.41 0.195-0.578 0.227-0.219 0.622-0.297 0.917-0.165zM14.070 16.155c-0.114 0.167-0.145 0.34-0.123 0.538 0.038 0.179 0.106 0.326 0.262 0.433 0.125 0.070 0.236 0.1 0.378 0.073 0.179-0.054 0.279-0.162 0.373-0.32 0.084-0.171 0.082-0.389 0.022-0.568-0.072-0.164-0.176-0.274-0.339-0.346-0.226-0.075-0.428 0.008-0.573 0.19z"></path>
<path fill="#000" d="M18.64 15.787c0.087 0.032 0.14 0.082 0.198 0.155 0.022 0.086 0.005 0.159-0.012 0.245-0.077 0.023-0.118 0.033-0.193 0.002-0.071-0.084-0.066-0.16-0.073-0.268-0.062 0.018-0.123 0.035-0.187 0.053-0.024 0.045-0.024 0.045-0.027 0.107 0.075 0.137 0.167 0.213 0.292 0.303 0.173 0.131 0.304 0.248 0.348 0.468 0.008 0.126-0.019 0.238-0.080 0.348-0.082 0.091-0.176 0.181-0.302 0.192-0.198 0.003-0.355-0.007-0.51-0.142-0.057-0.104-0.078-0.198-0.068-0.317 0.028-0.065 0.060-0.105 0.107-0.16 0.062 0.009 0.123 0.018 0.187 0.027 0.030 0.126 0.020 0.2-0.027 0.32 0 0.018 0 0.035 0 0.053 0.104 0.035 0.212 0.045 0.32 0.027 0.085-0.047 0.085-0.047 0.133-0.133 0.017-0.083 0.021-0.157 0-0.24-0.072-0.108-0.157-0.174-0.262-0.248-0.329-0.244-0.329-0.244-0.367-0.405-0.007-0.118 0.004-0.201 0.079-0.295 0.132-0.122 0.27-0.108 0.443-0.092z"></path>
<path fill="#000" d="M22.107 15.307c0.057-0.001 0.114-0.001 0.172-0.002 0.032-0 0.064-0.001 0.097-0.001 0.078 0.003 0.078 0.003 0.105 0.029 0.003 0.057 0.003 0.115 0.003 0.172 0 0.018 0 0.036 0 0.054-0 0.060-0 0.119-0 0.179-0 0.041-0 0.082-0 0.124-0 0.109-0 0.217-0.001 0.326-0 0.111-0 0.222-0.001 0.332-0 0.218-0.001 0.435-0.001 0.653 0.044 0 0.088 0 0.133 0 0.017 0.063 0.017 0.063 0.027 0.133-0.068 0.068-0.114 0.060-0.207 0.061-0.020-0-0.039-0-0.060-0.001s-0.039 0-0.060 0.001c-0.147-0.001-0.147-0.001-0.207-0.061 0.010-0.070 0.010-0.070 0.027-0.133 0.044 0 0.088 0 0.133 0 0-0.554 0-1.109 0-1.68-0.044 0-0.088 0-0.133 0-0.018-0.018-0.035-0.035-0.053-0.053 0.010-0.070 0.010-0.070 0.027-0.133z"></path>
<path fill="#000" d="M13.173 15.813c0.033 0.065 0.030 0.107 0.030 0.179 0 0.026 0 0.052 0 0.079-0 0.028-0 0.057-0 0.086s-0 0.058-0 0.088c-0 0.093-0.001 0.185-0.001 0.278-0 0.063-0 0.125-0 0.188-0 0.154-0.001 0.308-0.001 0.462 0.044 0 0.088 0 0.133 0 0.017 0.063 0.017 0.063 0.027 0.133-0.068 0.068-0.114 0.060-0.207 0.061-0.020-0-0.039-0-0.060-0.001s-0.039 0-0.060 0.001c-0.147-0.001-0.147-0.001-0.207-0.061 0.010-0.070 0.010-0.070 0.027-0.133 0.044 0 0.088 0 0.133 0 0-0.387 0-0.774 0-1.173-0.044-0.009-0.088-0.018-0.133-0.027-0.027-0.027-0.027-0.027-0.028-0.095 0.001-0.021 0.001-0.043 0.002-0.065 0.119-0.040 0.227-0.040 0.347 0z"></path>
<path fill="#000" d="M17.56 15.247c0.067 0.007 0.067 0.007 0.12 0.060 0.012 0.167-0.016 0.318-0.053 0.48-0.044-0.009-0.088-0.018-0.133-0.027-0.034-0.152-0.066-0.297-0.053-0.453 0.053-0.053 0.053-0.053 0.12-0.060z"></path>
<path fill="#000" d="M13.038 15.3c0.082 0.007 0.082 0.007 0.162 0.060 0.013 0.092 0.013 0.092 0 0.187-0.058 0.055-0.058 0.055-0.133 0.080-0.085-0.022-0.125-0.045-0.187-0.107 0.017-0.208 0.017-0.208 0.158-0.22z"></path>
</svg>
